<?xml version="1.0" encoding="UTF-8"?>
<svg width="217px" height="31px" viewBox="0 0 217 31" version="1.1" xmlns="http://www.w3.org/2000/svg" xmlns:xlink="http://www.w3.org/1999/xlink">
    <!-- Generator: Sketch 54.1 (76490) - https://sketchapp.com -->
    <title>logo-small</title>
    <desc>Created with Sketch.</desc>
    <g id="Page-1" stroke="none" stroke-width="1" fill="none" fill-rule="evenodd">
        <g id="logo-small">
            <path d="M28.0402087,8.68925217 L25.1073391,8.68925217 C23.5170783,8.68925217 22.2287304,7.40090435 22.2287304,5.81203478 L22.2287304,2.87777391 C22.2287304,1.28890435 23.5170783,0.000556521739 25.1073391,0.000556521739 L28.0402087,0.000556521739 C29.6290783,0.000556521739 30.9174261,1.28890435 30.9174261,2.87777391 L30.9174261,5.81203478 C30.9174261,7.40090435 29.6290783,8.68925217 28.0402087,8.68925217" id="Fill-1" fill="#384857"></path>
            <path d="M3.41426087,30.9181217 L2.17878261,30.9181217 C0.975304348,30.9181217 0,29.9428174 0,28.7393391 L0,27.5038609 C0,26.3003826 0.975304348,25.3250783 2.17878261,25.3250783 L3.41426087,25.3250783 C4.61773913,25.3250783 5.59304348,26.3003826 5.59304348,27.5038609 L5.59304348,28.7393391 C5.59304348,29.9428174 4.61773913,30.9181217 3.41426087,30.9181217" id="Fill-3" fill="#004A79"></path>
            <path d="M25.1813565,13.1737043 L20.7013565,8.69370435 C20.1629217,8.15526957 19.8596174,7.42205217 19.8596174,6.65961739 L19.8596174,2.87805217 C19.8596174,1.2877913 18.5712696,-0.000556521739 16.9810087,-0.000556521739 L14.0481391,-0.000556521739 C12.4578783,-0.000556521739 11.1695304,1.2877913 11.1695304,2.87805217 L11.1695304,5.81092174 C11.1695304,7.40118261 12.4578783,8.68953043 14.0481391,8.68953043 L17.8297043,8.68953043 C18.5921391,8.68953043 19.3239652,8.99283478 19.8637913,9.53266087 L24.4495304,14.1170087 C24.9893565,14.6568348 25.2926609,15.3886609 25.2926609,16.152487 L25.2926609,17.528487 C25.2926609,18.7305739 26.2679652,19.7072696 27.4714435,19.7072696 L28.8029217,19.7072696 C30.0064,19.7072696 30.9817043,18.7305739 30.9817043,17.528487 L30.9817043,16.1956174 C30.9817043,14.9921391 30.0064,14.0168348 28.8029217,14.0168348 L27.2168348,14.0168348 C26.4530087,14.0168348 25.7211826,13.7135304 25.1813565,13.1737043" id="Fill-5" fill="#FFC72A"></path>
            <path d="M19.9006609,17.76 L19.9006609,13.8949565 C19.9006609,12.306087 18.612313,11.0177391 17.0234435,11.0177391 L13.1584,11.0177391 C12.3945739,11.0177391 11.6627478,10.7144348 11.1229217,10.1746087 L9.64257391,8.69426087 C9.10274783,8.15443478 8.79944348,7.4226087 8.79944348,6.65878261 L8.79944348,2.8786087 C8.79944348,1.28834783 7.51109565,0 5.92222609,0 L2.98935652,0 C1.39909565,0 0.110747826,1.28834783 0.110747826,2.8786087 L0.110747826,5.81147826 C0.110747826,7.40034783 1.39909565,8.68869565 2.98935652,8.68869565 L6.77092174,8.68869565 C7.53335652,8.68869565 8.26518261,8.992 8.8050087,9.53182609 L10.3688348,11.0956522 C10.9086609,11.6354783 11.2119652,12.3673043 11.2119652,13.1297391 L11.2119652,16.8292174 C11.2119652,18.418087 12.500313,19.7064348 14.0891826,19.7064348 L17.7872696,19.7064348 C18.5510957,19.7064348 19.2829217,20.0097391 19.8227478,20.5495652 L24.4822261,25.2090435 C25.0220522,25.7488696 25.3253565,26.4806957 25.3253565,27.2445217 L25.3253565,28.7387826 C25.3253565,29.9422609 26.3006609,30.9175652 27.5041391,30.9175652 L28.7396174,30.9175652 C29.9430957,30.9175652 30.9184,29.9422609 30.9184,28.7387826 L30.9184,27.5033043 C30.9184,26.3012174 29.9430957,25.3245217 28.7396174,25.3245217 L27.4651826,25.3245217 C26.7027478,25.3245217 25.9709217,25.0212174 25.4310957,24.4827826 L20.7437913,19.7954783 C20.2039652,19.2556522 19.9006609,18.5238261 19.9006609,17.76" id="Fill-8" fill="#FE3B53"></path>
            <path d="M5.59304348,14.5807304 L5.59304348,13.4176 C5.59304348,12.2141217 4.61773913,11.2388174 3.41426087,11.2388174 L2.33182609,11.2388174 C1.12834783,11.2388174 0.153043478,12.2141217 0.153043478,13.4176 L0.153043478,14.5014261 C0.153043478,15.7049043 1.12834783,16.6802087 2.33182609,16.6802087 L3.63269565,16.6802087 C4.39513043,16.6802087 5.12834783,16.983513 5.66678261,17.5233391 L10.368,22.2231652 C10.9078261,22.7629913 11.2111304,23.4948174 11.2111304,24.2586435 L11.2111304,28.0402087 C11.2111304,29.6290783 12.4994783,30.9174261 14.0897391,30.9174261 L17.0226087,30.9174261 C18.6114783,30.9174261 19.9012174,29.6290783 19.9012174,28.0402087 L19.9012174,25.1073391 C19.9012174,23.5170783 18.6114783,22.2287304 17.0226087,22.2287304 L13.2410435,22.2287304 C12.4772174,22.2287304 11.7453913,21.9254261 11.2055652,21.3856 L6.43617391,16.6162087 C5.89634783,16.0763826 5.59304348,15.3445565 5.59304348,14.5807304" id="Fill-11" fill="#15B2FF"></path>
            <polygon id="Fill-13" fill="#FFFFFF" points="57.1250087 10.3805217 49.9806609 10.3805217 49.9806609 4.59686957 70.868313 4.59686957 70.868313 10.3805217 63.7239652 10.3805217 63.7239652 28.4104348 57.1250087 28.4104348"></polygon>
            <polygon id="Fill-15" fill="#FFFFFF" points="73.8907826 28.4109913 80.5245217 28.4109913 80.5245217 4.59603478 73.8907826 4.59603478"></polygon>
            <polygon id="Fill-17" fill="#FFFFFF" points="84.8769391 4.59673043 91.0348522 4.59673043 100.832417 17.1852522 100.832417 4.59673043 107.364591 4.59673043 107.364591 28.411687 101.580939 28.411687 91.409113 15.3473391 91.409113 28.411687 84.8769391 28.411687"></polygon>
            <polygon id="Fill-18" fill="#FFFFFF" points="117.39367 10.3805217 110.249322 10.3805217 110.249322 4.59686957 131.136974 4.59686957 131.136974 10.3805217 123.992626 10.3805217 123.992626 28.4104348 117.39367 28.4104348"></polygon>
            <polygon id="Fill-19" fill="#FFFFFF" points="134.023652 4.59673043 153.176348 4.59673043 153.176348 10.2106435 140.555826 10.2106435 140.555826 13.8169043 151.986783 13.8169043 151.986783 19.0217739 140.555826 19.0217739 140.555826 22.7977739 153.346087 22.7977739 153.346087 28.411687 134.023652 28.411687"></polygon>
            <path d="M155.722991,16.5721043 L155.722991,16.5039304 C155.722991,9.56410435 161.064209,4.12132174 168.27673,4.12132174 C173.14073,4.12132174 176.271165,6.16097391 178.380383,9.08827826 L173.413426,12.9324522 C172.05273,11.230887 170.487513,10.142887 168.208557,10.142887 C164.874991,10.142887 162.52647,12.9658435 162.52647,16.4357565 L162.52647,16.5039304 C162.52647,20.0768 164.874991,22.8663652 168.208557,22.8663652 C170.692035,22.8663652 172.154296,21.7088 173.583165,19.9738435 L178.550122,23.5119304 C176.305948,26.6075826 173.27847,28.8879304 168.004035,28.8879304 C161.200557,28.8879304 155.722991,23.6816696 155.722991,16.5721043" id="Fill-20" fill="#FFFFFF"></path>
            <polygon id="Fill-21" fill="#FFFFFF" points="181.367652 4.59673043 187.966609 4.59673043 187.966609 13.5108174 196.438261 13.5108174 196.438261 4.59673043 203.038609 4.59673043 203.038609 28.411687 196.438261 28.411687 196.438261 19.3612522 187.966609 19.3612522 187.966609 28.411687 181.367652 28.411687"></polygon>
            <path d="M213.104,7.00076522 C212.873043,6.87137391 212.502957,6.80737391 211.99513,6.80737391 L211.211826,6.80737391 L211.211826,8.6898087 L212.039652,8.6898087 C212.427826,8.6898087 212.718609,8.65224348 212.913391,8.57433043 C213.270957,8.43241739 213.450435,8.16111304 213.450435,7.7618087 C213.450435,7.38337391 213.333565,7.13015652 213.104,7.00076522 L213.104,7.00076522 Z M212.114783,6.18128696 C212.760348,6.18128696 213.233391,6.24389565 213.532522,6.36772174 C214.070957,6.59311304 214.339478,7.03137391 214.339478,7.68528696 C214.339478,8.14998261 214.17113,8.49224348 213.833043,8.71206957 C213.653565,8.82893913 213.401739,8.91241739 213.081739,8.96389565 C213.488,9.02789565 213.784348,9.19763478 213.973565,9.47311304 C214.161391,9.7472 214.256,10.0157217 214.256,10.277287 L214.256,10.6585043 C214.256,10.7781565 214.260174,10.9075478 214.268522,11.045287 C214.27687,11.1830261 214.292174,11.2720696 214.314435,11.3152 L214.346435,11.3805913 L213.488,11.3805913 C213.483826,11.3625043 213.479652,11.3458087 213.475478,11.3277217 C213.471304,11.3110261 213.46713,11.2915478 213.462957,11.2706783 L213.443478,11.1037217 L213.443478,10.6918957 C213.443478,10.0922435 213.279304,9.69572174 212.953739,9.50233043 C212.760348,9.39102609 212.419478,9.33537391 211.933913,9.33537391 L211.211826,9.33537391 L211.211826,11.3805913 L210.296348,11.3805913 L210.296348,6.18128696 L212.114783,6.18128696 Z M209.328,5.91693913 C208.536348,6.71276522 208.141217,7.67415652 208.141217,8.79972174 C208.141217,9.93502609 208.534957,10.9019826 209.321043,11.7019826 C210.112696,12.5019826 211.074087,12.901287 212.205217,12.901287 C213.334957,12.901287 214.296348,12.5019826 215.088,11.7019826 C215.879652,10.9019826 216.274783,9.93502609 216.274783,8.79972174 C216.274783,7.67415652 215.879652,6.71276522 215.088,5.91693913 C214.292174,5.11693913 213.332174,4.71763478 212.205217,4.71763478 C211.082435,4.71763478 210.123826,5.11693913 209.328,5.91693913 L209.328,5.91693913 Z M215.558261,12.1541565 C214.634435,13.0835478 213.515826,13.5468522 212.205217,13.5468522 C210.893217,13.5468522 209.777391,13.0835478 208.857739,12.1541565 C207.942261,11.2289391 207.48313,10.1089391 207.48313,8.79415652 C207.48313,7.49050435 207.946435,6.37746087 208.870261,5.45224348 C209.789913,4.5325913 210.901565,4.07206957 212.205217,4.07206957 C213.515826,4.07206957 214.634435,4.5325913 215.558261,5.45224348 C216.483478,6.37189565 216.945391,7.48633043 216.945391,8.79415652 C216.945391,10.1047652 216.483478,11.2247652 215.558261,12.1541565 L215.558261,12.1541565 Z" id="Fill-22" fill="#FFFFFF"></path>
        </g>
    </g>
</svg>