<?xml version="1.0" encoding="UTF-8"?>
<svg width="161px" height="56px" viewBox="0 0 161 56" version="1.1" xmlns="http://www.w3.org/2000/svg" xmlns:xlink="http://www.w3.org/1999/xlink">
    <!-- Generator: Sketch 55 (78076) - https://sketchapp.com -->
    <title>Group 21</title>
    <desc>Created with Sketch.</desc>
    <g id="Page-1" stroke="none" stroke-width="1" fill="none" fill-rule="evenodd">
        <g id="Desktop-HD" transform="translate(-72.000000, -21.000000)">
            <g id="Group-21" transform="translate(72.000000, 21.000000)">
                <path d="M49.0320405,15.5 L43.9679595,15.5 C41.2242833,15.5 39,13.2757167 39,10.5320405 L39,5.46795953 C39,2.72428331 41.2242833,0.5 43.9679595,0.5 L49.0320405,0.5 C51.7757167,0.5 54,2.72428331 54,5.46795953 L54,10.5320405 C54,13.2757167 51.7757167,15.5 49.0320405,15.5" id="Fill-1" fill="#384857"></path>
                <path d="M6.10444807,54.5 L3.89555193,54.5 C1.74429436,54.5 0,52.7558072 0,50.6046749 L0,48.3959073 C0,46.2441928 1.74429436,44.5 3.89555193,44.5 L6.10444807,44.5 C8.25628784,44.5 10,46.2441928 10,48.3959073 L10,50.6046749 C10,52.7558072 8.25628784,54.5 6.10444807,54.5" id="Fill-3" fill="#004A79"></path>
                <path d="M44.0450325,23.2286517 L36.3582217,15.5005618 C35.4317364,14.5691011 34.9114964,13.3061798 34.9114964,11.9893258 L34.9114964,5.46516854 C34.9114964,2.72303371 32.7003369,0.5 29.972849,0.5 L24.9386474,0.5 C22.2111595,0.5 20,2.72303371 20,5.46516854 L20,10.5264045 C20,13.2685393 22.2111595,15.491573 24.9386474,15.491573 L31.4279563,15.491573 C32.7377763,15.491573 33.9939518,16.0146067 34.9204372,16.9455056 L42.7888569,24.8561798 C43.7147835,25.7876404 44.2350234,27.0505618 44.2350234,28.3674157 L44.2350234,30.7410112 C44.2350234,32.8168539 45.9091791,34.5 47.9744926,34.5 L50.2605309,34.5 C52.3258444,34.5 54,32.8168539 54,30.7410112 L54,28.4421348 C54,26.3662921 52.3258444,24.6831461 50.2605309,24.6831461 L47.5375134,24.6831461 C46.2276933,24.6831461 44.970959,24.1595506 44.0450325,23.2286517" id="Fill-5" fill="#FFC72A"></path>
                <path d="M34.04602,31.5184936 L34.04602,24.7690623 C34.04602,21.9926279 31.8293539,19.7422487 29.0950735,19.7422487 L22.4461955,19.7422487 C21.1331135,19.7422487 19.8738096,19.2127812 18.9455772,18.2704314 L16.39896,15.685083 C15.4707275,14.7427332 14.9486318,13.463708 14.9486318,12.1306555 L14.9486318,5.52624484 C14.9486318,2.75037914 12.7319656,0.5 9.99768526,0.5 L4.95094651,0.5 C2.21666614,0.5 0,2.75037914 0,5.52624484 L0,10.6497388 C0,13.4256045 2.21666614,15.6759837 4.95094651,15.6759837 L11.4569765,15.6759837 C12.7700584,15.6759837 14.0293623,16.2054512 14.9575948,17.1483697 L17.6470601,19.8787387 C18.5758527,20.8210886 19.0973883,22.099545 19.0973883,23.4325975 L19.0973883,29.8919875 C19.0973883,32.6684219 21.3140544,34.9188011 24.0483348,34.9188011 L30.4109564,34.9188011 C31.7240384,34.9188011 32.9833423,35.4482686 33.912135,36.3906184 L41.9278731,44.5288356 C42.8566657,45.4711854 43.3782013,46.7496419 43.3782013,48.0826944 L43.3782013,50.6942034 C43.3782013,52.7961496 45.0565262,54.5 47.1264229,54.5 L49.2517783,54.5 C51.3222353,54.5 53,52.7961496 53,50.6942034 L53,48.5365237 C53,46.4351462 51.3222353,44.7312958 49.2517783,44.7312958 L47.0608809,44.7312958 C45.7477989,44.7312958 44.488495,44.2018283 43.5597024,43.2589098 L35.4963482,35.0729211 C34.5675556,34.1300025 34.04602,32.851546 34.04602,31.5184936" id="Fill-7" fill="#FE3B53"></path>
                <path d="M9.3671124,26.2732771 L9.3671124,24.2642757 C9.3671124,22.1849508 7.68754637,20.5 5.61611898,20.5 L3.75155402,20.5 C1.67956603,20.5 0,22.1849508 0,24.2642757 L0,26.135443 C0,28.2142053 1.67956603,29.8997187 3.75155402,29.8997187 L5.99172286,29.8997187 C7.30577586,29.8997187 8.56601098,30.423488 9.49492984,31.3562588 L17.5889133,39.4783404 C18.5178321,40.4111111 19.0397533,41.6758087 19.0397533,42.9945148 L19.0397533,49.5278481 C19.0397533,52.2738397 21.2580587,54.5 23.9949216,54.5 L29.0448317,54.5 C31.7816947,54.5 34,52.2738397 34,49.5278481 L34,44.4594937 C34,41.7135021 31.7816947,39.4873418 29.0448317,39.4873418 L22.5345513,39.4873418 C21.2204983,39.4873418 19.9602632,38.9635724 19.0307837,38.0308017 L10.8185131,29.7894515 C9.88903362,28.8566807 9.3671124,27.5919831 9.3671124,26.2732771" id="Fill-9" fill="#15B2FF"></path>
                <polygon id="Fill-11" fill="#FFFFFF" points="79.9941958 6.655283 79.9941958 26.5 74.0052461 26.5 74.0052461 6.655283 67 6.655283 67 1.5 87 1.5 87 6.655283"></polygon>
                <polygon id="Fill-13" fill="#FFFFFF" points="91 26.5 97 26.5 97 1.5 91 1.5"></polygon>
                <polygon id="Fill-15" fill="#FFFFFF" points="119.071206 26.5 108.892548 10.1514009 108.785566 10.1514009 108.928398 26.5 103 26.5 103 1.5 109.964075 1.5 120.106314 17.8137167 120.214434 17.8137167 120.071033 1.5 126 1.5 126 26.5"></polygon>
                <polygon id="Fill-16" fill="#FFFFFF" points="79.9941958 34.655283 79.9941958 54.5 74.0052461 54.5 74.0052461 34.655283 67 34.655283 67 29.5 87 29.5 87 34.655283"></polygon>
                <polygon id="Fill-17" fill="#FFFFFF" points="90 54.5 90 29.5 107.343956 29.5 107.343956 34.5849556 96.0118049 34.5849556 96.0118049 39.316586 106.724487 39.316586 106.724487 44.153989 96.0118049 44.153989 96.0118049 49.344717 108 49.344717 108 54.5"></polygon>
                <path d="M130.9326,54.4021358 C129.320388,55.1340453 127.461819,55.5 125.35801,55.5 C123.441344,55.5 121.671039,55.1862452 120.046536,54.5592909 C118.422034,53.9317813 117.013723,53.0432721 115.822161,51.8926527 C114.63004,50.7425886 113.694331,49.3659547 113.017269,47.762751 C112.33909,46.1595472 112,44.3941905 112,42.465015 C112,40.4908586 112.345235,38.7016232 113.034587,37.0978642 C113.72338,35.4946604 114.675848,34.1302435 115.89199,33.0029475 C117.107014,31.8762067 118.533202,31.0110209 120.169436,30.4062794 C121.80511,29.8026484 123.570388,29.5 125.463033,29.5 C127.216579,29.5 128.939959,29.8082016 130.634849,30.4240496 C132.32918,31.0398975 133.702856,31.9400683 134.754202,33.1251175 L130.68736,37.1678343 C130.126494,36.4009398 129.390217,35.8317386 128.479088,35.4596754 C127.566842,35.0887228 126.63225,34.9026912 125.674196,34.9026912 C124.621733,34.9026912 123.657534,35.094276 122.781599,35.4774455 C121.905105,35.8606151 121.150952,36.3898334 120.519698,37.0634344 C119.888444,37.7375908 119.397965,38.5328065 119.047144,39.4507475 C118.696881,40.3686886 118.521471,41.3732593 118.521471,42.465015 C118.521471,43.5806493 118.696881,44.6035455 119.047144,45.5320376 C119.397965,46.4616403 119.882299,47.2574114 120.50238,47.919906 C121.121345,48.5818454 121.863767,49.099402 122.728529,49.4703545 C123.593292,49.8424178 124.539614,50.0284494 125.568615,50.0284494 C126.760735,50.0284494 127.80035,49.7963264 128.689133,49.3309697 C129.577358,48.8667236 130.289614,48.2625374 130.827577,47.5189663 L135,51.4222982 C133.901171,52.6773174 132.545371,53.6702264 130.9326,54.4021358" id="Fill-18" fill="#FFFFFF"></path>
                <polygon id="Fill-19" fill="#FFFFFF" points="154.913059 54.5 154.913059 44.0482165 145.086941 44.0482165 145.086941 54.5 139 54.5 139 29.5 145.086941 29.5 145.086941 38.9632609 154.913059 38.9632609 154.913059 29.5 161 29.5 161 54.5"></polygon>
                <path d="M135.751592,2.97234513 C135.556079,2.86338496 135.2437,2.80862832 134.813348,2.80862832 L134.151482,2.80862832 L134.151482,4.39878319 L134.851565,4.39878319 C135.180006,4.39878319 135.425921,4.36670354 135.589864,4.30088496 C135.892827,4.18086283 136.043478,3.95243363 136.043478,3.61504425 C136.043478,3.29535398 135.946552,3.08075221 135.751592,2.97234513 L135.751592,2.97234513 Z M134.915259,2.28097345 C135.46026,2.28097345 135.860703,2.3335177 136.114927,2.43860619 C136.569094,2.62776549 136.796732,2.99834071 136.796732,3.55088496 C136.796732,3.94303097 136.653836,4.23174779 136.368042,4.4175885 C136.21573,4.51548673 136.0036,4.58628319 135.732761,4.62997788 C136.075602,4.68418142 136.328164,4.82798673 136.486569,5.05973451 C136.646081,5.2920354 136.725838,5.51880531 136.725838,5.74004425 L136.725838,6.06084071 C136.725838,6.16261062 136.729161,6.2710177 136.736915,6.38716814 C136.744115,6.50331858 136.756854,6.57909292 136.774578,6.61559735 L136.802271,6.67035398 L136.07671,6.67035398 C136.072833,6.65542035 136.06951,6.64103982 136.065633,6.62665929 C136.06231,6.61227876 136.058433,6.59568584 136.054556,6.57743363 L136.03794,6.43639381 L136.03794,6.08904867 C136.03794,5.5824115 135.900028,5.24778761 135.624204,5.08462389 C135.46026,4.99059735 135.172805,4.94358407 134.762393,4.94358407 L134.151482,4.94358407 L134.151482,6.67035398 L133.377181,6.67035398 L133.377181,2.28097345 L134.915259,2.28097345 Z M132.559125,2.05752212 C131.890058,2.7289823 131.555525,3.54037611 131.555525,4.49170354 C131.555525,5.45022124 131.888397,6.26714602 132.553586,6.94192478 C133.222653,7.61780973 134.03517,7.95519912 134.991692,7.95519912 C135.94766,7.95519912 136.760731,7.61780973 137.429244,6.94192478 C138.097757,6.26714602 138.432844,5.45022124 138.432844,4.49170354 C138.432844,3.54037611 138.097757,2.7289823 137.429244,2.05752212 C136.756854,1.38219027 135.943783,1.04424779 134.991692,1.04424779 C134.042371,1.04424779 133.232069,1.38219027 132.559125,2.05752212 L132.559125,2.05752212 Z M137.827472,7.32356195 C137.045417,8.10785398 136.099972,8.5 134.991692,8.5 C133.882858,8.5 132.939075,8.10785398 132.160897,7.32356195 C131.386597,6.54314159 131,5.59734513 131,4.48617257 C131,3.38606195 131.390474,2.44579646 132.171975,1.66537611 C132.950152,0.888274336 133.890058,0.5 134.991692,0.5 C136.099972,0.5 137.045417,0.888274336 137.827472,1.66537611 C138.608973,2.44247788 139,3.38219027 139,4.48617257 C139,5.59347345 138.608973,6.53926991 137.827472,7.32356195 L137.827472,7.32356195 Z" id="Fill-20" fill="#FFFFFF"></path>
            </g>
        </g>
    </g>
</svg>